<svg width="1200" height="700" viewBox="0 0 1200 700" fill="none" xmlns="http://www.w3.org/2000/svg">
  <rect width="1200" height="700" fill="#F5F5F5"/>
  <circle cx="180" cy="160" r="96" fill="#FF6B00" fill-opacity=".14"/>
  <rect x="690" y="86" width="330" height="220" rx="28" fill="#FFFFFF"/>
  <rect x="734" y="132" width="206" height="18" rx="9" fill="#1E1E1E" fill-opacity=".18"/>
  <rect x="734" y="172" width="238" height="14" rx="7" fill="#FF6B00" fill-opacity=".32"/>
  <rect x="734" y="214" width="160" height="48" rx="24" fill="#FF6B00"/>
  <rect x="134" y="410" width="410" height="190" rx="30" fill="#FFFFFF"/>
  <rect x="184" y="462" width="280" height="18" rx="9" fill="#1E1E1E" fill-opacity=".18"/>
  <rect x="184" y="502" width="210" height="14" rx="7" fill="#FF6B00" fill-opacity=".32"/>
  <rect x="790" y="390" width="238" height="238" rx="48" fill="#FF6B00"/>
  <path d="M849 466H970V494H883V506H956V532H883V545H972V573H849V466Z" fill="white"/>
</svg>

